<mxfile host="app.diagrams.net" modified="2023-07-24T07:31:10.174Z" agent="Mozilla/5.0 (Windows NT 10.0; Win64; x64) AppleWebKit/537.36 (KHTML, like Gecko) Chrome/114.0.0.0 Safari/537.36" etag="jYLY4T_YOYGpNU7N2sIE" version="21.6.2" type="github">
  <diagram name="第 1 页" id="L1Wrr_m9PHw1G3Nd7EMF">
    <mxGraphModel dx="1235" dy="636" grid="1" gridSize="10" guides="1" tooltips="1" connect="1" arrows="1" fold="1" page="1" pageScale="1" pageWidth="2000" pageHeight="2000" math="0" shadow="0">
      <root>
        <mxCell id="0" />
        <mxCell id="1" parent="0" />
        <mxCell id="o2OPM5YUOTS7JP_HxVPr-2" value="&lt;span style=&quot;border-color: var(--border-color); color: rgb(41, 115, 183); font-family: &amp;quot;Roboto Mono&amp;quot;, Monaco, courier, monospace; font-size: 13.6px;&quot; class=&quot;hljs-name&quot;&gt;&amp;lt;base-layout&lt;/span&gt;&lt;span style=&quot;color: rgb(41, 115, 183); font-family: &amp;quot;Roboto Mono&amp;quot;, Monaco, courier, monospace; font-size: 13.6px;&quot;&gt;&amp;gt;&lt;/span&gt;&lt;br style=&quot;color: rgb(82, 82, 82); font-family: &amp;quot;Roboto Mono&amp;quot;, Monaco, courier, monospace; font-size: 13.6px;&quot;&gt;&lt;span style=&quot;color: rgb(82, 82, 82); font-family: &amp;quot;Roboto Mono&amp;quot;, Monaco, courier, monospace; font-size: 13.6px; background-color: rgb(248, 248, 248);&quot;&gt;  &lt;/span&gt;&lt;blockquote style=&quot;margin: 0 0 0 40px; border: none; padding: 0px;&quot;&gt;&lt;span style=&quot;color: rgb(41, 115, 183); font-family: &amp;quot;Roboto Mono&amp;quot;, Monaco, courier, monospace; font-size: 13.6px;&quot; class=&quot;hljs-tag&quot;&gt;&amp;lt;&lt;span class=&quot;hljs-name&quot;&gt;template&lt;/span&gt; &lt;span class=&quot;hljs-attr&quot;&gt;v-slot:header&lt;/span&gt;&amp;gt;&lt;br&gt;&lt;/span&gt;&lt;span style=&quot;color: rgb(41, 115, 183); font-family: &amp;quot;Roboto Mono&amp;quot;, Monaco, courier, monospace; font-size: 13.6px;&quot; class=&quot;hljs-tag&quot;&gt;&lt;span style=&quot;white-space: pre;&quot;&gt;&#x9;&lt;/span&gt;&amp;lt;&lt;span class=&quot;hljs-name&quot;&gt;h1&lt;/span&gt;&amp;gt;&lt;/span&gt;&lt;span style=&quot;color: rgb(82, 82, 82); font-family: &amp;quot;Roboto Mono&amp;quot;, Monaco, courier, monospace; font-size: 13.6px; background-color: rgb(248, 248, 248);&quot;&gt;Here might be a page title&lt;/span&gt;&lt;span style=&quot;color: rgb(41, 115, 183); font-family: &amp;quot;Roboto Mono&amp;quot;, Monaco, courier, monospace; font-size: 13.6px;&quot; class=&quot;hljs-tag&quot;&gt;&amp;lt;/&lt;span class=&quot;hljs-name&quot;&gt;h1&lt;/span&gt;&amp;gt;&lt;br&gt;&lt;/span&gt;&lt;span style=&quot;color: rgb(41, 115, 183); font-family: &amp;quot;Roboto Mono&amp;quot;, Monaco, courier, monospace; font-size: 13.6px;&quot; class=&quot;hljs-tag&quot;&gt;&amp;lt;/&lt;span class=&quot;hljs-name&quot;&gt;template&lt;/span&gt;&amp;gt;&lt;/span&gt;&lt;/blockquote&gt;&lt;br style=&quot;color: rgb(82, 82, 82); font-family: &amp;quot;Roboto Mono&amp;quot;, Monaco, courier, monospace; font-size: 13.6px;&quot;&gt;&lt;span style=&quot;color: rgb(82, 82, 82); font-family: &amp;quot;Roboto Mono&amp;quot;, Monaco, courier, monospace; font-size: 13.6px; background-color: rgb(248, 248, 248);&quot;&gt;  &lt;/span&gt;&lt;blockquote style=&quot;margin: 0 0 0 40px; border: none; padding: 0px;&quot;&gt;&lt;span style=&quot;color: rgb(41, 115, 183); font-family: &amp;quot;Roboto Mono&amp;quot;, Monaco, courier, monospace; font-size: 13.6px;&quot; class=&quot;hljs-tag&quot;&gt;&amp;lt;&lt;span class=&quot;hljs-name&quot;&gt;p&lt;/span&gt;&amp;gt;&lt;/span&gt;&lt;span style=&quot;color: rgb(82, 82, 82); font-family: &amp;quot;Roboto Mono&amp;quot;, Monaco, courier, monospace; font-size: 13.6px; background-color: rgb(248, 248, 248);&quot;&gt;A paragraph for the main content.&lt;/span&gt;&lt;span style=&quot;color: rgb(41, 115, 183); font-family: &amp;quot;Roboto Mono&amp;quot;, Monaco, courier, monospace; font-size: 13.6px;&quot; class=&quot;hljs-tag&quot;&gt;&amp;lt;/&lt;span class=&quot;hljs-name&quot;&gt;p&lt;/span&gt;&amp;gt;&lt;br&gt;&lt;/span&gt;&lt;span style=&quot;color: rgb(41, 115, 183); font-family: &amp;quot;Roboto Mono&amp;quot;, Monaco, courier, monospace; font-size: 13.6px;&quot; class=&quot;hljs-tag&quot;&gt;&amp;lt;&lt;span class=&quot;hljs-name&quot;&gt;p&lt;/span&gt;&amp;gt;&lt;/span&gt;&lt;span style=&quot;color: rgb(82, 82, 82); font-family: &amp;quot;Roboto Mono&amp;quot;, Monaco, courier, monospace; font-size: 13.6px; background-color: rgb(248, 248, 248);&quot;&gt;And another one.&lt;/span&gt;&lt;span style=&quot;color: rgb(41, 115, 183); font-family: &amp;quot;Roboto Mono&amp;quot;, Monaco, courier, monospace; font-size: 13.6px;&quot; class=&quot;hljs-tag&quot;&gt;&amp;lt;/&lt;span class=&quot;hljs-name&quot;&gt;p&lt;/span&gt;&amp;gt;&lt;/span&gt;&lt;/blockquote&gt;&lt;br style=&quot;color: rgb(82, 82, 82); font-family: &amp;quot;Roboto Mono&amp;quot;, Monaco, courier, monospace; font-size: 13.6px;&quot;&gt;&lt;span style=&quot;color: rgb(82, 82, 82); font-family: &amp;quot;Roboto Mono&amp;quot;, Monaco, courier, monospace; font-size: 13.6px; background-color: rgb(248, 248, 248);&quot;&gt;  &lt;/span&gt;&lt;blockquote style=&quot;margin: 0 0 0 40px; border: none; padding: 0px;&quot;&gt;&lt;span style=&quot;color: rgb(41, 115, 183); font-family: &amp;quot;Roboto Mono&amp;quot;, Monaco, courier, monospace; font-size: 13.6px;&quot; class=&quot;hljs-tag&quot;&gt;&amp;lt;&lt;span class=&quot;hljs-name&quot;&gt;template&lt;/span&gt; &lt;span class=&quot;hljs-attr&quot;&gt;v-slot:footer&lt;/span&gt;&amp;gt;&lt;br&gt;&lt;/span&gt;&lt;span style=&quot;color: rgb(41, 115, 183); font-family: &amp;quot;Roboto Mono&amp;quot;, Monaco, courier, monospace; font-size: 13.6px;&quot; class=&quot;hljs-tag&quot;&gt;&lt;span style=&quot;white-space: pre;&quot;&gt;&#x9;&lt;/span&gt;&amp;lt;&lt;span class=&quot;hljs-name&quot;&gt;p&lt;/span&gt;&amp;gt;&lt;/span&gt;&lt;span style=&quot;color: rgb(82, 82, 82); font-family: &amp;quot;Roboto Mono&amp;quot;, Monaco, courier, monospace; font-size: 13.6px; background-color: rgb(248, 248, 248);&quot;&gt;Here&#39;s some contact info&lt;/span&gt;&lt;span style=&quot;color: rgb(41, 115, 183); font-family: &amp;quot;Roboto Mono&amp;quot;, Monaco, courier, monospace; font-size: 13.6px;&quot; class=&quot;hljs-tag&quot;&gt;&amp;lt;/&lt;span class=&quot;hljs-name&quot;&gt;p&lt;/span&gt;&amp;gt;&lt;br&gt;&lt;/span&gt;&lt;span style=&quot;color: rgb(41, 115, 183); font-family: &amp;quot;Roboto Mono&amp;quot;, Monaco, courier, monospace; font-size: 13.6px;&quot; class=&quot;hljs-tag&quot;&gt;&amp;lt;/&lt;span class=&quot;hljs-name&quot;&gt;template&lt;/span&gt;&amp;gt;&lt;/span&gt;&lt;/blockquote&gt;&lt;span style=&quot;color: rgb(41, 115, 183); font-family: &amp;quot;Roboto Mono&amp;quot;, Monaco, courier, monospace; font-size: 13.6px;&quot; class=&quot;hljs-tag&quot;&gt;&amp;lt;/&lt;span class=&quot;hljs-name&quot;&gt;base-layout&lt;/span&gt;&amp;gt;&lt;/span&gt;" style="rounded=0;whiteSpace=wrap;html=1;movableLabel=0;glass=0;comic=1;align=left;" vertex="1" parent="1">
          <mxGeometry x="500" y="130" width="410" height="220" as="geometry" />
        </mxCell>
        <mxCell id="o2OPM5YUOTS7JP_HxVPr-1" value="&lt;span style=&quot;border-color: var(--border-color); color: rgb(41, 115, 183); font-family: &amp;quot;Roboto Mono&amp;quot;, Monaco, courier, monospace; font-size: 13.6px;&quot; class=&quot;hljs-name&quot;&gt;&amp;lt;div&lt;/span&gt;&lt;span style=&quot;color: rgb(41, 115, 183); font-family: &amp;quot;Roboto Mono&amp;quot;, Monaco, courier, monospace; font-size: 13.6px;&quot;&gt;&amp;gt;&lt;/span&gt;&lt;br style=&quot;color: rgb(82, 82, 82); font-family: &amp;quot;Roboto Mono&amp;quot;, Monaco, courier, monospace; font-size: 13.6px;&quot;&gt;&lt;span style=&quot;color: rgb(82, 82, 82); font-family: &amp;quot;Roboto Mono&amp;quot;, Monaco, courier, monospace; font-size: 13.6px; background-color: rgb(248, 248, 248);&quot;&gt;  &lt;/span&gt;&lt;blockquote style=&quot;margin: 0 0 0 40px; border: none; padding: 0px;&quot;&gt;&lt;span style=&quot;color: rgb(41, 115, 183); font-family: &amp;quot;Roboto Mono&amp;quot;, Monaco, courier, monospace; font-size: 13.6px;&quot; class=&quot;hljs-tag&quot;&gt;&amp;lt;&lt;span class=&quot;hljs-name&quot;&gt;header&lt;/span&gt;&amp;gt;&lt;br&gt;&lt;/span&gt;&lt;span style=&quot;color: rgb(41, 115, 183); font-family: &amp;quot;Roboto Mono&amp;quot;, Monaco, courier, monospace; font-size: 13.6px;&quot; class=&quot;hljs-tag&quot;&gt;&lt;span style=&quot;&quot;&gt;&lt;span style=&quot;&quot;&gt;&amp;nbsp;&amp;nbsp;&amp;nbsp;&amp;nbsp;&lt;/span&gt;&lt;/span&gt;&amp;lt;&lt;span class=&quot;hljs-name&quot;&gt;slot&lt;/span&gt; &lt;span class=&quot;hljs-attr&quot;&gt;name&lt;/span&gt;=&lt;span style=&quot;color: rgb(66, 185, 131);&quot; class=&quot;hljs-string&quot;&gt;&quot;header&quot;&lt;/span&gt;&amp;gt;&lt;/span&gt;&lt;span style=&quot;color: rgb(41, 115, 183); font-family: &amp;quot;Roboto Mono&amp;quot;, Monaco, courier, monospace; font-size: 13.6px;&quot; class=&quot;hljs-tag&quot;&gt;&amp;lt;/&lt;span class=&quot;hljs-name&quot;&gt;slot&lt;/span&gt;&amp;gt;&lt;br&gt;&lt;/span&gt;&lt;span style=&quot;color: rgb(41, 115, 183); font-family: &amp;quot;Roboto Mono&amp;quot;, Monaco, courier, monospace; font-size: 13.6px;&quot; class=&quot;hljs-tag&quot;&gt;&amp;lt;/&lt;span class=&quot;hljs-name&quot;&gt;header&lt;/span&gt;&amp;gt;&lt;br&gt;&lt;/span&gt;&lt;span style=&quot;color: rgb(41, 115, 183); font-family: &amp;quot;Roboto Mono&amp;quot;, Monaco, courier, monospace; font-size: 13.6px;&quot; class=&quot;hljs-tag&quot;&gt;&amp;lt;&lt;span class=&quot;hljs-name&quot;&gt;main&lt;/span&gt;&amp;gt;&lt;br&gt;&lt;/span&gt;&lt;span style=&quot;color: rgb(41, 115, 183); font-family: &amp;quot;Roboto Mono&amp;quot;, Monaco, courier, monospace; font-size: 13.6px;&quot; class=&quot;hljs-tag&quot;&gt;&lt;span style=&quot;white-space: pre;&quot;&gt;&#x9;&lt;/span&gt;&amp;lt;&lt;span class=&quot;hljs-name&quot;&gt;slot&lt;/span&gt;&amp;gt;&lt;/span&gt;&lt;span style=&quot;color: rgb(41, 115, 183); font-family: &amp;quot;Roboto Mono&amp;quot;, Monaco, courier, monospace; font-size: 13.6px;&quot; class=&quot;hljs-tag&quot;&gt;&amp;lt;/&lt;span class=&quot;hljs-name&quot;&gt;slot&lt;/span&gt;&amp;gt;&lt;br&gt;&lt;/span&gt;&lt;span style=&quot;color: rgb(41, 115, 183); font-family: &amp;quot;Roboto Mono&amp;quot;, Monaco, courier, monospace; font-size: 13.6px;&quot; class=&quot;hljs-tag&quot;&gt;&amp;lt;/&lt;span class=&quot;hljs-name&quot;&gt;main&lt;/span&gt;&amp;gt;&lt;br&gt;&lt;/span&gt;&lt;span style=&quot;color: rgb(41, 115, 183); font-family: &amp;quot;Roboto Mono&amp;quot;, Monaco, courier, monospace; font-size: 13.6px;&quot; class=&quot;hljs-tag&quot;&gt;&amp;lt;&lt;span class=&quot;hljs-name&quot;&gt;footer&lt;/span&gt;&amp;gt;&lt;br&gt;&lt;/span&gt;&lt;span style=&quot;color: rgb(41, 115, 183); font-family: &amp;quot;Roboto Mono&amp;quot;, Monaco, courier, monospace; font-size: 13.6px;&quot; class=&quot;hljs-tag&quot;&gt;&lt;span style=&quot;white-space: pre;&quot;&gt;&#x9;&lt;/span&gt;&amp;lt;&lt;span class=&quot;hljs-name&quot;&gt;slot&lt;/span&gt; &lt;span class=&quot;hljs-attr&quot;&gt;name&lt;/span&gt;=&lt;span style=&quot;color: rgb(66, 185, 131);&quot; class=&quot;hljs-string&quot;&gt;&quot;footer&quot;&lt;/span&gt;&amp;gt;&lt;/span&gt;&lt;span style=&quot;color: rgb(41, 115, 183); font-family: &amp;quot;Roboto Mono&amp;quot;, Monaco, courier, monospace; font-size: 13.6px;&quot; class=&quot;hljs-tag&quot;&gt;&amp;lt;/&lt;span class=&quot;hljs-name&quot;&gt;slot&lt;/span&gt;&amp;gt;&lt;br&gt;&lt;/span&gt;&lt;span style=&quot;color: rgb(41, 115, 183); font-family: &amp;quot;Roboto Mono&amp;quot;, Monaco, courier, monospace; font-size: 13.6px;&quot; class=&quot;hljs-tag&quot;&gt;&amp;lt;/&lt;span class=&quot;hljs-name&quot;&gt;footer&lt;/span&gt;&amp;gt;&lt;/span&gt;&lt;/blockquote&gt;&lt;span style=&quot;color: rgb(41, 115, 183); font-family: &amp;quot;Roboto Mono&amp;quot;, Monaco, courier, monospace; font-size: 13.6px;&quot; class=&quot;hljs-tag&quot;&gt;&amp;lt;/&lt;span class=&quot;hljs-name&quot;&gt;div&lt;/span&gt;&amp;gt;&lt;/span&gt;" style="rounded=0;whiteSpace=wrap;html=1;movableLabel=0;glass=0;comic=1;align=left;" vertex="1" parent="1">
          <mxGeometry x="110" y="130" width="330" height="220" as="geometry" />
        </mxCell>
        <mxCell id="o2OPM5YUOTS7JP_HxVPr-4" value="&lt;font style=&quot;font-size: 16px;&quot;&gt;&lt;font face=&quot;Comic Sans MS&quot;&gt;&amp;lt;div&amp;gt;&lt;br&gt;&lt;span style=&quot;white-space: pre;&quot;&gt;&#x9;&lt;/span&gt;&amp;lt;header&amp;gt;&lt;br&gt;&lt;br&gt;&lt;span style=&quot;white-space: pre;&quot;&gt;&#x9;&lt;/span&gt;&amp;lt;/header&amp;gt;&lt;br&gt;&lt;span style=&quot;white-space: pre;&quot;&gt;&#x9;&lt;/span&gt;&amp;lt;main&amp;gt;&lt;br&gt;&lt;span style=&quot;white-space: pre;&quot;&gt;&#x9;&lt;/span&gt;&lt;span style=&quot;white-space: pre;&quot;&gt;&#x9;&lt;/span&gt;&lt;br&gt;&lt;span style=&quot;white-space: pre;&quot;&gt;&#x9;&lt;/span&gt;&amp;lt;/main&amp;gt;&lt;br&gt;&lt;span style=&quot;white-space: pre;&quot;&gt;&#x9;&lt;/span&gt;&amp;lt;footer&amp;gt;&lt;br&gt;&lt;span style=&quot;white-space: pre;&quot;&gt;&#x9;&lt;/span&gt;&lt;span style=&quot;white-space: pre;&quot;&gt;&#x9;&lt;/span&gt;&lt;br&gt;&lt;span style=&quot;white-space: pre;&quot;&gt;&#x9;&lt;/span&gt;&amp;lt;/footer&amp;gt;&lt;br&gt;&amp;lt;/div&amp;gt;&lt;/font&gt;&lt;br&gt;&lt;br&gt;&lt;/font&gt;" style="rounded=0;whiteSpace=wrap;html=1;comic=1;align=left;" vertex="1" parent="1">
          <mxGeometry x="35" y="440" width="315" height="260" as="geometry" />
        </mxCell>
        <mxCell id="o2OPM5YUOTS7JP_HxVPr-3" value="&lt;font style=&quot;font-size: 16px;&quot;&gt;&amp;lt;slot name=&quot;header&quot;&amp;gt;&amp;lt;/slot&amp;gt;&lt;/font&gt;" style="rounded=0;whiteSpace=wrap;html=1;comic=1;fillColor=#fff2cc;strokeColor=#d6b656;align=left;fontFamily=Comic Sans MS;" vertex="1" parent="1">
          <mxGeometry x="110" y="492" width="210" height="20" as="geometry" />
        </mxCell>
        <mxCell id="o2OPM5YUOTS7JP_HxVPr-5" value="&lt;font style=&quot;font-size: 16px;&quot;&gt;&amp;lt;slot&amp;gt;&amp;lt;/slot&amp;gt;&lt;/font&gt;" style="rounded=0;whiteSpace=wrap;html=1;comic=1;fillColor=#dae8fc;strokeColor=#6c8ebf;align=left;fontFamily=Comic Sans MS;fontSize=16;" vertex="1" parent="1">
          <mxGeometry x="110" y="552" width="210" height="20" as="geometry" />
        </mxCell>
        <mxCell id="o2OPM5YUOTS7JP_HxVPr-6" value="&lt;font style=&quot;font-size: 16px;&quot;&gt;&amp;lt;slot name=&quot;footer&quot;&amp;gt;&amp;lt;/slot&amp;gt;&lt;/font&gt;" style="rounded=0;whiteSpace=wrap;html=1;comic=1;fillColor=#d5e8d4;strokeColor=#82b366;align=left;fontFamily=Comic Sans MS;" vertex="1" parent="1">
          <mxGeometry x="110" y="612" width="210" height="20" as="geometry" />
        </mxCell>
        <mxCell id="o2OPM5YUOTS7JP_HxVPr-7" value="&lt;font style=&quot;font-size: 16px;&quot;&gt;&amp;lt;base-layout&amp;gt;&lt;br style=&quot;font-size: 16px;&quot;&gt;&lt;span style=&quot;white-space: pre; font-size: 16px;&quot;&gt;&#x9;&lt;/span&gt;&amp;lt;template v-slot:header&amp;gt;&lt;br style=&quot;font-size: 16px;&quot;&gt;&lt;span style=&quot;white-space: pre; font-size: 16px;&quot;&gt;&#x9;&lt;/span&gt;&lt;br style=&quot;font-size: 16px;&quot;&gt;&lt;span style=&quot;white-space: pre; font-size: 16px;&quot;&gt;&#x9;&lt;/span&gt;&amp;lt;/template&amp;gt;&lt;br style=&quot;font-size: 16px;&quot;&gt;&lt;span style=&quot;white-space: pre; font-size: 16px;&quot;&gt;&#x9;&lt;/span&gt;&lt;br style=&quot;font-size: 16px;&quot;&gt;&lt;br style=&quot;font-size: 16px;&quot;&gt;&lt;span style=&quot;white-space: pre; font-size: 16px;&quot;&gt;&#x9;&lt;/span&gt;&amp;lt;template v-slot:footer&amp;gt;&lt;br style=&quot;font-size: 16px;&quot;&gt;&lt;span style=&quot;white-space: pre; font-size: 16px;&quot;&gt;&#x9;&lt;/span&gt;&lt;br style=&quot;font-size: 16px;&quot;&gt;&lt;span style=&quot;white-space: pre; font-size: 16px;&quot;&gt;&#x9;&lt;/span&gt;&amp;lt;/template&amp;gt;&lt;br style=&quot;font-size: 16px;&quot;&gt;&amp;lt;/base-layout&amp;gt;&lt;/font&gt;" style="rounded=0;whiteSpace=wrap;html=1;comic=1;align=left;fontFamily=Comic Sans MS;fontSize=16;" vertex="1" parent="1">
          <mxGeometry x="460" y="440" width="420" height="250" as="geometry" />
        </mxCell>
        <mxCell id="o2OPM5YUOTS7JP_HxVPr-8" value="&lt;span style=&quot;font-size: 16px;&quot;&gt;&amp;lt;h1&amp;gt;Here is might be a page ttitile&amp;lt;/h1&amp;gt;&lt;/span&gt;" style="rounded=0;whiteSpace=wrap;html=1;comic=1;fillColor=#fff2cc;strokeColor=#d6b656;align=left;fontFamily=Comic Sans MS;" vertex="1" parent="1">
          <mxGeometry x="540" y="510" width="310" height="20" as="geometry" />
        </mxCell>
        <mxCell id="o2OPM5YUOTS7JP_HxVPr-9" value="&lt;span style=&quot;font-size: 16px;&quot;&gt;&amp;lt;p&amp;gt;A paragraph for the main content.&amp;lt;/p&amp;gt;&lt;/span&gt;" style="rounded=0;whiteSpace=wrap;html=1;comic=1;fillColor=#dae8fc;strokeColor=#6c8ebf;align=left;fontFamily=Comic Sans MS;" vertex="1" parent="1">
          <mxGeometry x="540" y="546" width="310" height="20" as="geometry" />
        </mxCell>
        <mxCell id="o2OPM5YUOTS7JP_HxVPr-10" value="&lt;span style=&quot;font-size: 16px;&quot;&gt;&amp;lt;p&amp;gt;And another one.&amp;lt;/p&amp;gt;&lt;/span&gt;" style="rounded=0;whiteSpace=wrap;html=1;comic=1;fillColor=#dae8fc;strokeColor=#6c8ebf;align=left;fontFamily=Comic Sans MS;" vertex="1" parent="1">
          <mxGeometry x="540" y="566" width="310" height="20" as="geometry" />
        </mxCell>
        <mxCell id="o2OPM5YUOTS7JP_HxVPr-13" value="&lt;span style=&quot;font-size: 16px;&quot;&gt;&amp;lt;p&amp;gt;Here&#39;s some contact info&amp;lt;/p&amp;gt;&lt;/span&gt;" style="rounded=0;whiteSpace=wrap;html=1;comic=1;fillColor=#d5e8d4;strokeColor=#82b366;align=left;fontFamily=Comic Sans MS;" vertex="1" parent="1">
          <mxGeometry x="540" y="605" width="310" height="20" as="geometry" />
        </mxCell>
        <mxCell id="o2OPM5YUOTS7JP_HxVPr-16" value="子组件" style="text;html=1;strokeColor=none;fillColor=none;align=center;verticalAlign=middle;whiteSpace=wrap;rounded=0;fontFamily=Comic Sans MS;" vertex="1" parent="1">
          <mxGeometry x="162.5" y="440" width="60" height="30" as="geometry" />
        </mxCell>
        <mxCell id="o2OPM5YUOTS7JP_HxVPr-17" value="&lt;font style=&quot;font-size: 16px;&quot;&gt;&lt;font face=&quot;Comic Sans MS&quot;&gt;&amp;lt;div&amp;gt;&lt;br&gt;&lt;span style=&quot;white-space: pre;&quot;&gt;&#x9;&lt;/span&gt;&amp;lt;header&amp;gt;&lt;br&gt;&lt;br&gt;&lt;span style=&quot;white-space: pre;&quot;&gt;&#x9;&lt;/span&gt;&amp;lt;/header&amp;gt;&lt;br&gt;&lt;span style=&quot;white-space: pre;&quot;&gt;&#x9;&lt;/span&gt;&amp;lt;main&amp;gt;&lt;br&gt;&lt;span style=&quot;white-space: pre;&quot;&gt;&#x9;&lt;/span&gt;&lt;span style=&quot;white-space: pre;&quot;&gt;&#x9;&lt;/span&gt;&lt;br&gt;&lt;br&gt;&lt;span style=&quot;white-space: pre;&quot;&gt;&#x9;&lt;/span&gt;&amp;lt;/main&amp;gt;&lt;br&gt;&lt;span style=&quot;white-space: pre;&quot;&gt;&#x9;&lt;/span&gt;&amp;lt;footer&amp;gt;&lt;br&gt;&lt;span style=&quot;white-space: pre;&quot;&gt;&#x9;&lt;/span&gt;&lt;span style=&quot;white-space: pre;&quot;&gt;&#x9;&lt;/span&gt;&lt;br&gt;&lt;span style=&quot;white-space: pre;&quot;&gt;&#x9;&lt;/span&gt;&amp;lt;/footer&amp;gt;&lt;br&gt;&amp;lt;/div&amp;gt;&lt;/font&gt;&lt;br&gt;&lt;br&gt;&lt;/font&gt;" style="rounded=0;whiteSpace=wrap;html=1;comic=1;align=left;" vertex="1" parent="1">
          <mxGeometry x="190" y="770" width="482.5" height="260" as="geometry" />
        </mxCell>
        <mxCell id="o2OPM5YUOTS7JP_HxVPr-18" value="&lt;span style=&quot;font-size: 16px;&quot;&gt;&amp;lt;h1&amp;gt;Here is might be a page ttitile&amp;lt;/h1&amp;gt;&lt;/span&gt;" style="rounded=0;whiteSpace=wrap;html=1;comic=1;fillColor=#fff2cc;strokeColor=#d6b656;align=left;fontFamily=Comic Sans MS;" vertex="1" parent="1">
          <mxGeometry x="262.5" y="811" width="310" height="20" as="geometry" />
        </mxCell>
        <mxCell id="o2OPM5YUOTS7JP_HxVPr-19" value="&lt;span style=&quot;font-size: 16px;&quot;&gt;&amp;lt;p&amp;gt;A paragraph for the main content.&amp;lt;/p&amp;gt;&lt;/span&gt;" style="rounded=0;whiteSpace=wrap;html=1;comic=1;fillColor=#dae8fc;strokeColor=#6c8ebf;align=left;fontFamily=Comic Sans MS;" vertex="1" parent="1">
          <mxGeometry x="262.5" y="872" width="310" height="20" as="geometry" />
        </mxCell>
        <mxCell id="o2OPM5YUOTS7JP_HxVPr-20" value="&lt;span style=&quot;font-size: 16px;&quot;&gt;&amp;lt;p&amp;gt;And another one.&amp;lt;/p&amp;gt;&lt;/span&gt;" style="rounded=0;whiteSpace=wrap;html=1;comic=1;fillColor=#dae8fc;strokeColor=#6c8ebf;align=left;fontFamily=Comic Sans MS;" vertex="1" parent="1">
          <mxGeometry x="262.5" y="892" width="310" height="20" as="geometry" />
        </mxCell>
        <mxCell id="o2OPM5YUOTS7JP_HxVPr-21" value="&lt;span style=&quot;font-size: 16px;&quot;&gt;&amp;lt;p&amp;gt;Here&#39;s some contact info&amp;lt;/p&amp;gt;&lt;/span&gt;" style="rounded=0;whiteSpace=wrap;html=1;comic=1;fillColor=#d5e8d4;strokeColor=#82b366;align=left;fontFamily=Comic Sans MS;" vertex="1" parent="1">
          <mxGeometry x="261.5" y="952" width="310" height="20" as="geometry" />
        </mxCell>
        <mxCell id="o2OPM5YUOTS7JP_HxVPr-25" value="" style="endArrow=classic;html=1;rounded=0;" edge="1" parent="1">
          <mxGeometry width="50" height="50" relative="1" as="geometry">
            <mxPoint x="370" y="580" as="sourcePoint" />
            <mxPoint x="430" y="580" as="targetPoint" />
          </mxGeometry>
        </mxCell>
        <mxCell id="o2OPM5YUOTS7JP_HxVPr-26" value="" style="endArrow=classic;html=1;rounded=0;" edge="1" parent="1">
          <mxGeometry width="50" height="50" relative="1" as="geometry">
            <mxPoint x="530" y="700" as="sourcePoint" />
            <mxPoint x="450" y="760" as="targetPoint" />
          </mxGeometry>
        </mxCell>
      </root>
    </mxGraphModel>
  </diagram>
</mxfile>
